<?xml version="1.0" encoding="UTF-8" standalone="no"?>
<!-- Created with Inkscape (http://www.inkscape.org/) -->

<svg
   xmlns:dc="http://purl.org/dc/elements/1.1/"
   xmlns:cc="http://creativecommons.org/ns#"
   xmlns:rdf="http://www.w3.org/1999/02/22-rdf-syntax-ns#"
   xmlns:svg="http://www.w3.org/2000/svg"
   xmlns="http://www.w3.org/2000/svg"
   xmlns:sodipodi="http://sodipodi.sourceforge.net/DTD/sodipodi-0.dtd"
   xmlns:inkscape="http://www.inkscape.org/namespaces/inkscape"
   id="svg3200"
   height="24"
   width="24"
   version="1.0"
   inkscape:version="0.48.4 r9939"
   sodipodi:docname="xampp-controller.svg">
  <defs
     id="defs3073" />
  <sodipodi:namedview
     pagecolor="#ffffff"
     bordercolor="#666666"
     borderopacity="1"
     objecttolerance="10"
     gridtolerance="10"
     guidetolerance="10"
     inkscape:pageopacity="0"
     inkscape:pageshadow="2"
     inkscape:window-width="1615"
     inkscape:window-height="1026"
     id="namedview3071"
     showgrid="false"
     inkscape:zoom="9.8333333"
     inkscape:cx="11.898305"
     inkscape:cy="12"
     inkscape:window-x="65"
     inkscape:window-y="24"
     inkscape:window-maximized="1"
     inkscape:current-layer="svg3200" />
  <metadata
     id="metadata8">
    <rdf:RDF>
      <cc:Work
         rdf:about="">
        <dc:format>image/svg+xml</dc:format>
        <dc:type
           rdf:resource="http://purl.org/dc/dcmitype/StillImage" />
        <dc:title></dc:title>
      </cc:Work>
    </rdf:RDF>
  </metadata>
  <g
     id="g2992"
     transform="translate(0.63909697,-0.30091065)">
    <g
       transform="matrix(0.22732491,0,0,0.22732491,-0.76901209,-0.0918489)"
       id="g4605">
      <path
         inkscape:connector-curvature="0"
         id="path34"
         d="M 33.78125,21 C 22.362414,21 13.125,29.746793 13.125,40.53125 13.125,49.756285 19.898158,57.456211 29,59.5 c 0.300227,-0.821001 0.643482,-1.640931 1.0625,-2.40625 1.782359,-3.256333 4.828058,-5.648249 7.875,-6.84375 4.89312,-1.91986 9.710846,-1.852753 14.71875,-1.75 1.157567,-2.436623 1.8125,-5.126115 1.8125,-7.96875 C 54.46875,29.746793 45.200087,21 33.78125,21 z m 1.40625,12.75 c 4.180303,0 7.59375,3.276681 7.59375,7.3125 0,1.917419 -0.03125,7.28125 -0.03125,7.28125 l -7.5625,0 c -4.180304,0 -7.5625,-3.245997 -7.5625,-7.28125 0,-4.035536 3.382196,-7.3125 7.5625,-7.3125 z"
         style="fill:#dfdbd2;fill-opacity:1;fill-rule:evenodd" />
      <path
         inkscape:connector-curvature="0"
         id="path36"
         d="m 28.75,44.875 c -9.185421,2.309024 -16,10.912752 -16,21.1875 0,12.043622 9.372485,21.8125 20.9375,21.8125 11.565015,0 20.9375,-9.768878 20.9375,-21.8125 0,-1.644283 -0.168008,-3.241037 -0.5,-4.78125 -5.610851,0.0306 -9.966124,0.18617 -11.5625,0.8125 -0.905391,0.35523 -1.014594,0.43544 -1.375,1.09375 -0.360377,0.658254 -0.84375,2.247589 -0.84375,5.25 a 6.359375,6.359375 0 1 1 -12.71875,0 c 0,-4.335117 0.654633,-8.087418 2.4375,-11.34375 1.782359,-3.256333 4.828058,-5.648249 7.875,-6.84375 2.765046,-1.084891 5.489612,-1.48948 8.25,-1.65625 -1.07627,-0.837909 -2.21607,-1.574586 -3.4375,-2.1875 -0.0014,0.594511 0,1.9375 0,1.9375 l -7.5625,0 c -2.722371,0 -5.103865,-1.386456 -6.4375,-3.46875 z"
         style="fill:#dfdbd2;fill-opacity:1;fill-rule:evenodd" />
      <path
         inkscape:connector-curvature="0"
         id="path38"
         d="m 73,20.3125 c -11.576303,0 -20.96875,9.567296 -20.96875,21.375 0,2.390754 0.38276,4.69795 1.09375,6.84375 1.076618,0.02204 2.150649,0.03125 3.25,0.03125 6.144115,0 8.915242,-0.979997 9.4375,-1.40625 0.522234,-0.426119 1.25,-1.454137 1.25,-6.40625 A 6.3500065,6.3500065 0 0 1 73.28125,34.3125 6.3500065,6.3500065 0 0 1 79.75,40.75 c 0,5.070075 -0.769635,9.920881 -3.4375,13.625 a 6.3500065,6.3500065 0 0 1 3.46875,5.75 l 0,1.78125 C 88.035653,59.034766 93.96875,51.079032 93.96875,41.6875 93.96875,29.879796 84.576302,20.3125 73,20.3125 z m -5.9375,40 c -1.030067,0.259996 -2.109716,0.455254 -3.21875,0.59375 1.0345,0.514429 2.097853,0.943832 3.21875,1.28125 l 0,-1.875 z"
         style="fill:#dfdbd2;fill-opacity:1;fill-rule:evenodd" />
      <path
         inkscape:connector-curvature="0"
         id="path40"
         d="m 66.5,46.03125 c -1.628898,0.530483 -3.165821,1.293232 -4.59375,2.21875 2.362504,-0.32596 3.579839,-0.827342 3.90625,-1.09375 0.21968,-0.179249 0.467707,-0.482633 0.6875,-1.125 z M 79.34375,46.375 c -0.463019,2.957775 -1.377959,5.704536 -3.03125,8 a 6.3500065,6.3500065 0 0 1 3.46875,5.75 l 0,7.46875 a 6.359375,6.359375 0 0 1 -12.71875,0 l 0,-7.28125 c -3.180948,0.802895 -6.717829,0.96875 -10.6875,0.96875 -1.288093,0 -2.460809,0.01933 -3.625,0.03125 -0.442826,1.787915 -0.6875,3.657022 -0.6875,5.59375 0,12.043622 9.124918,21.8125 20.375,21.8125 11.250083,0 20.375,-9.768878 20.375,-21.8125 0,-9.446311 -5.61913,-17.499814 -13.46875,-20.53125 z"
         style="fill:#dfdbd2;fill-opacity:1;fill-rule:evenodd" />
      <path
         inkscape:connector-curvature="0"
         id="path42"
         d="m 42.78125,41.90625 c -0.0024,2.298448 -0.03125,6.4375 -0.03125,6.4375 l -7.5625,0 c -1.055218,0 -2.056176,-0.185932 -2.96875,-0.5625 l 0,6.375 c 1.654411,-1.764443 3.685548,-3.108501 5.71875,-3.90625 6.093771,-2.390946 12.052501,-1.6875 18.4375,-1.6875 6.144115,0 8.915242,-0.979997 9.4375,-1.40625 0.476655,-0.388928 1.111528,-1.330188 1.21875,-5.25 l -24.25,0 z M 67.0625,60.3125 c -3.180948,0.802895 -6.717829,0.96875 -10.6875,0.96875 -6.751291,0 -12.001696,0.10204 -13.8125,0.8125 -0.905391,0.35523 -1.014594,0.43544 -1.375,1.09375 -0.308298,0.563128 -0.69949,1.864752 -0.8125,4.09375 l 26.6875,0 0,-6.96875 z"
         style="opacity:0.98999999;fill:#dfdbd2;fill-opacity:1;fill-rule:nonzero" />
    </g>
  </g>
</svg>
